<svg width="60" height="60" viewBox="0 0 60 60" fill="none" xmlns="http://www.w3.org/2000/svg">
<path d="M22.0364 30.327H22.3636V19.527H17.0182V25.1998H10.2545C7.52727 25.1998 5.34545 22.9089 5.34545 20.1816C5.34545 17.3452 7.52727 15.1634 10.2545 15.1634H39.0545C41.7818 15.1634 43.9636 17.4543 43.9636 20.1816C43.9636 23.0179 41.7818 25.1998 39.0545 25.1998H26.9455V30.6543H39.0545C44.7273 30.6543 49.3091 25.9634 49.3091 20.1816C49.3091 14.3998 44.7273 9.70885 39.0545 9.70885H10.2545C4.58182 9.59976 0 14.3998 0 20.1816C0 25.9634 4.58182 30.6543 10.2545 30.6543H22.0364V30.327Z" fill="#882052"/>
<path d="M40.2546 0H17.3455V5.45455H40.3636C48.3273 5.45455 54.7636 12 54.7636 20.1818C54.7636 28.3636 48.3273 34.9091 40.3636 34.9091H17.3455V35.2364H17.0182V60H32.0727V44.7273H26.7273V54.5455H22.3636V40.2545H40.2546C51.1636 40.2545 60 31.2 60 20.0727C60 8.94545 51.1636 0 40.2546 0Z" fill="#882052"/>
</svg>
