<svg width="20" height="17" viewBox="0 0 20 17" fill="none" xmlns="http://www.w3.org/2000/svg">
<path d="M20 1.92212C19.2639 2.2483 18.474 2.46951 17.6442 2.56826C18.4915 2.06085 19.1402 1.25601 19.4476 0.299934C18.6527 0.769835 17.7754 1.11104 16.8405 1.29601C16.0919 0.497417 15.0271 0 13.8461 0C11.5803 0 9.74311 1.83715 9.74311 4.10173C9.74311 4.4229 9.77936 4.73659 9.84936 5.03656C6.44001 4.86532 3.41683 3.23189 1.39347 0.749835C1.03977 1.35474 0.838563 2.05957 0.838563 2.81196C0.838563 4.23545 1.56343 5.49146 2.66324 6.2263C1.99085 6.20381 1.35847 6.01885 0.804837 5.7114V5.76264C0.804837 7.74976 2.21958 9.40819 4.09546 9.78564C3.75177 9.87812 3.38935 9.92936 3.01441 9.92936C2.74948 9.92936 2.49327 9.90312 2.24206 9.85312C2.76445 11.4841 4.27919 12.6701 6.07386 12.7026C4.67036 13.8024 2.90069 14.456 0.978563 14.456C0.647386 14.456 0.321177 14.436 0 14.3998C1.81592 15.5658 3.97177 16.2457 6.28883 16.2457C13.8362 16.2457 17.9617 9.99436 17.9617 4.5729L17.9479 4.04176C18.754 3.46682 19.4513 2.74447 20 1.92212Z" fill="#882052"/>
</svg>
