<svg width="21" height="16" viewBox="0 0 21 16" fill="none" xmlns="http://www.w3.org/2000/svg">
<path d="M18.5452 16C19.0029 16 19.3996 15.8488 19.7367 15.5504L13.9674 9.78085C13.829 9.87997 13.6948 9.97635 13.5681 10.068C13.1363 10.3861 12.7859 10.6343 12.5169 10.8122C12.2478 10.9905 11.8899 11.1722 11.443 11.3577C10.9959 11.5435 10.5793 11.636 10.1929 11.636H10.1816H10.1703C9.78383 11.636 9.36728 11.5435 8.92018 11.3577C8.47309 11.1722 8.11514 10.9905 7.84635 10.8122C7.57731 10.6343 7.22709 10.3861 6.79511 10.068C6.67474 9.97976 6.54123 9.88293 6.3969 9.7793L0.626465 15.5504C0.963605 15.8488 1.36049 16 1.8182 16H18.5452Z" fill="#882052"/>
<path d="M1.14785 6.14794C0.716133 5.86012 0.333296 5.53048 0 5.15918V13.9371L5.08506 8.85201C4.06776 8.1418 2.75702 7.24147 1.14785 6.14794Z" fill="#882052"/>
<path d="M19.2272 6.14794C17.6794 7.19555 16.3639 8.09743 15.2805 8.85405L20.3635 13.9373V5.15918C20.0376 5.52301 19.6589 5.85243 19.2272 6.14794Z" fill="#882052"/>
<path d="M18.5453 0H1.81831C1.23475 0 0.786106 0.197056 0.471813 0.590763C0.157261 0.984654 0.000244141 1.47726 0.000244141 2.06802C0.000244141 2.54521 0.208614 3.06225 0.62517 3.6193C1.04173 4.17612 1.48497 4.61349 1.95469 4.93163C2.2122 5.11356 2.98874 5.65342 4.28433 6.551C4.98371 7.03566 5.59193 7.45809 6.11459 7.82263C6.5601 8.13304 6.9443 8.40186 7.26151 8.62494C7.29793 8.65049 7.3552 8.69145 7.43121 8.7458C7.5131 8.80462 7.61674 8.87927 7.74458 8.97158C7.99077 9.14964 8.1953 9.29357 8.35819 9.40352C8.52087 9.51351 8.71796 9.63636 8.94918 9.77279C9.18021 9.90903 9.39812 10.0115 9.60265 10.0796C9.80721 10.1477 9.99658 10.1819 10.1708 10.1819H10.1821H10.1934C10.3676 10.1819 10.557 10.1477 10.7616 10.0796C10.9661 10.0115 11.1838 9.90925 11.415 9.77279C11.646 9.63636 11.8428 9.51325 12.006 9.40352C12.1689 9.29357 12.3735 9.14967 12.6197 8.97158C12.7473 8.87927 12.8509 8.80459 12.9328 8.74599C13.0088 8.69142 13.0661 8.65071 13.1027 8.62494C13.3498 8.45299 13.7349 8.18528 14.2527 7.82577C15.1948 7.1712 16.5822 6.20776 18.4209 4.93163C18.9739 4.54539 19.4359 4.07929 19.8072 3.534C20.1778 2.98872 20.3636 2.41673 20.3636 1.81824C20.3636 1.31821 20.1835 0.890341 19.8239 0.533975C19.464 0.178053 19.0377 0 18.5453 0Z" fill="#882052"/>
</svg>
