<?xml version="1.0" encoding="utf-8"?>
<!-- Generator: Adobe Illustrator 23.1.1, SVG Export Plug-In . SVG Version: 6.00 Build 0)  -->
<svg version="1.1" id="Layer_1" xmlns="http://www.w3.org/2000/svg" xmlns:xlink="http://www.w3.org/1999/xlink" x="0px" y="0px"
	 viewBox="0 0 319.1 162.4" style="enable-background:new 0 0 319.1 162.4;" xml:space="preserve">
<g id="Guides">
</g>
<g>
	<g>
		<path d="M112,32c-4.7-1.3-9.7,1.5-11,6.3c-1.4,4.8,1.3,9.8,6.1,11.1c4.7,1.3,9.7-1.5,11-6.3C119.4,38.3,116.7,33.4,112,32z
			 M109.8,46.2c-2.6-0.7-4.2-3.4-3.4-6c0.7-2.6,3.5-4.1,6.1-3.3c2.6,0.7,4.2,3.4,3.4,6C115.2,45.5,112.5,47,109.8,46.2z"/>
	</g>
	<g>
		<path d="M128.5,36.4c-3.1-0.9-6.3,1-7.2,4.1c-0.9,3.1,0.9,6.4,3.9,7.2s6.3-1,7.2-4.1C133.3,40.5,131.5,37.3,128.5,36.4z M127,45.6
			c-1.7-0.5-2.7-2.2-2.2-3.9c0.5-1.7,2.3-2.7,4-2.2c1.7,0.5,2.7,2.2,2.2,3.9C130.5,45.1,128.7,46.1,127,45.6z"/>
	</g>
	<g>
		<path d="M167.1,33.9c-3.7-1-7.5,1.2-8.6,4.9c-1.1,3.7,1,7.6,4.7,8.6c3.7,1,7.5-1.2,8.6-4.9C172.9,38.8,170.8,34.9,167.1,33.9z
			 M165.4,44.9c-2.1-0.6-3.3-2.7-2.7-4.7c0.6-2,2.7-3.2,4.8-2.6c2.1,0.6,3.3,2.7,2.7,4.7C169.6,44.3,167.4,45.5,165.4,44.9z"/>
	</g>
	<g>
		<path d="M179.9,37.3c-2.4-0.7-4.9,0.8-5.6,3.2c-0.7,2.4,0.7,5,3.1,5.6c2.4,0.7,4.9-0.8,5.6-3.2C183.7,40.5,182.3,37.9,179.9,37.3z
			 M178.8,44.5c-1.3-0.4-2.1-1.7-1.7-3c0.4-1.3,1.8-2.1,3.1-1.7c1.3,0.4,2.1,1.7,1.7,3C181.5,44.1,180.1,44.8,178.8,44.5z"/>
	</g>
	<path d="M117.4,72C117.4,71.9,117.4,71.9,117.4,72c0-0.1-0.1-0.2-0.1-0.3c-0.1-0.2-0.2-0.4-0.2-0.6c0-0.1-0.1-0.2-0.1-0.3
		c-0.4-0.9-0.8-1.7-1.2-2.4c-4.6-8.1-11.3-11.2-13.8-12.1c-3.6-1.2-6.7-1.7-7.6-1.8c-0.1,0-0.2,0-0.3,0c-0.1,0-0.2,0-0.3-0.1
		c-0.8-0.1-1.7-0.2-2.4,0c0.4-0.3,0.8-0.6,1.1-0.8c0.5-0.3,1-0.8,1.6-1.6l0,0l0,0c0.1-0.1,0.2-0.3,0.3-0.4l0,0
		c0.6-0.7,1.1-1.6,1.5-2.6c0.1-0.2,0.2-0.5,0.2-0.7c2.3-6.6-2.1-12.7-2.1-12.7l0,0c-1.3-2-2.6-3.2-2.6-3.2l0,0
		c-5.7-5.8-14.6-5.8-19.4-5.3v0c0,0,0,0,0,0c-0.3,0-0.6,0.1-0.9,0.1c-0.4,0-0.8,0.1-1.2,0.2c-0.1,0-0.2,0-0.3,0.1
		c-0.6,0.1-1,0.2-1,0.2l0,0c-0.7,0.1-1.4,0.3-2.1,0.5c-0.1,0-0.2,0.1-0.4,0.1c-0.2,0-0.3,0.1-0.5,0.1c-1,0.3-1.9,0.6-2.8,0.9
		c-0.1,0.1-0.3,0.1-0.4,0.2c-0.1,0-0.1,0.1-0.2,0.1c-4.6,2-6.6,5.5-6.8,5.8c-0.3,0.6-0.5,1.3-0.6,2.1l0,0c0,0-0.1,0.4-0.1,1.1
		c0,0.6,0,1.1,0.1,1.7c0,0.1,0.1,0.2,0.1,0.2c0,0.1,0,0.1,0,0.2c0,0,0,0.1,0,0.1c0,0,0,0,0,0c0,0,0,0.1,0,0.1c0,0,0,0.1,0,0.1
		c0.1,0.4,0.2,0.7,0.3,1.1c6.9,24,4.8,42.9,3,51.5l0,0c0,0-0.5,3.2,0.5,5.4c0.1,0.3,0.3,0.7,0.5,1c0.8,1.4,2,3,3.6,4.5
		c0,0,0.4,0.5,1.3,1.1c0.6,0.5,1.3,1,2,1.4c3.5,2.2,10,5,19.5,4.6l0,0.1c0,0,31.1-0.2,33.7-26.9l0,0C119.8,79.9,118.8,75.5,117.4,72
		z M69.5,44.5c0-3.8,3.1-6.9,6.9-6.9s6.9,3.1,6.9,6.9c0,3.8-3.1,6.9-6.9,6.9S69.5,48.3,69.5,44.5z M89.3,94.8
		c-7.1,0-12.9-5.8-12.9-12.9c0-7.1,5.8-12.9,12.9-12.9c7.1,0,12.9,5.8,12.9,12.9C102.3,89,96.5,94.8,89.3,94.8z"/>
	<path d="M157.4,48.2C157.4,48.2,157.4,48.2,157.4,48.2c0,0,0-0.1,0-0.1c0-0.1,0-0.1-0.1-0.2c0,0,0-0.1,0-0.1
		c-0.1-0.3-0.2-0.6-0.3-0.9c-1.3-3.1-3.6-4.5-4.5-4.9c-1.2-0.6-2.4-0.9-2.7-1c0,0-0.1,0-0.1,0c0,0-0.1,0-0.1,0
		c-0.3-0.1-0.6-0.1-0.9-0.1c0.2-0.1,0.3-0.2,0.4-0.2c0.2-0.1,0.4-0.2,0.6-0.5l0,0l0,0c0,0,0.1-0.1,0.1-0.1l0,0
		c0.2-0.2,0.5-0.5,0.7-0.9c0-0.1,0.1-0.2,0.1-0.2c1.1-2.2-0.2-4.6-0.2-4.6l0,0c-0.4-0.8-0.8-1.3-0.8-1.3l0,0c-1.8-2.3-5-2.7-6.8-2.7
		v0l0,0c-0.1,0-0.2,0-0.3,0c-0.1,0-0.3,0-0.4,0c0,0-0.1,0-0.1,0c-0.2,0-0.4,0-0.4,0l0,0c-0.3,0-0.5,0.1-0.8,0.1c0,0-0.1,0-0.1,0
		c-0.1,0-0.1,0-0.2,0c-0.4,0.1-0.7,0.1-1.1,0.2c-0.1,0-0.1,0-0.2,0c0,0-0.1,0-0.1,0c-1.8,0.5-2.6,1.7-2.7,1.7
		c-0.1,0.2-0.2,0.4-0.3,0.7l0,0c0,0-0.1,0.1-0.1,0.4c0,0.2-0.1,0.4,0,0.6c0,0,0,0.1,0,0.1c0,0,0,0,0,0.1c0,0,0,0,0,0.1c0,0,0,0,0,0
		c0,0,0,0,0,0c0,0,0,0,0,0c0,0.1,0,0.3,0.1,0.4c1.5,8.8-0.2,15.4-1.2,18.4l0,0c0,0-0.3,1.1-0.1,1.9c0,0.1,0.1,0.2,0.1,0.4
		c0.2,0.5,0.6,1.2,1.1,1.8c0,0,0.1,0.2,0.4,0.5c0.2,0.2,0.4,0.4,0.7,0.6c1.2,0.9,3.4,2.2,6.9,2.5l0,0c0,0,11.3,1.3,13.4-8l0,0
		C158,51.1,157.8,49.5,157.4,48.2z M141.3,36.3c0.2-1.3,1.4-2.3,2.8-2.1c1.4,0.2,2.4,1.4,2.2,2.7c-0.2,1.3-1.4,2.3-2.8,2.1
		C142.1,38.9,141.1,37.7,141.3,36.3z M146.3,55c-2.6-0.3-4.4-2.6-4.1-5.2c0.3-2.5,2.7-4.3,5.3-4c2.6,0.3,4.4,2.6,4.1,5.2
		C151.2,53.6,148.9,55.4,146.3,55z"/>
	<path d="M157.7,86.6c0-0.5,0-1.7,0-1.9l-1.3-19.8l0,0c-0.1-0.7-0.7-1.2-1.4-1.1c-0.7,0-1.2,0.6-1.2,1.3l0,0l0.7,10c0,0.1,0,0.8,0,1
		c0,0.1,0,0.1,0,0.2c-0.2,4-3.3,7.3-7.4,7.6c-4.2,0.3-7.9-2.8-8.5-6.9l-0.1-0.9l-0.6-8.8c0-0.4-0.1-0.8-0.1-1.1l0,0l0,0l0,0
		c-0.1-0.4-0.1-0.8-0.1-0.9c-0.6-2.5-3-4.2-5.8-4c-3.1,0.2-5.4,2.8-5.2,5.7l0,0l1.3,19.6l0.2,1.6c1,7.7,7.9,13.4,15.7,12.9
		c7.6-0.5,13.5-6.7,13.8-14.1C157.7,86.9,157.7,86.7,157.7,86.6z"/>
	<g>
		<polygon points="180.3,71.1 180.2,71 180.2,71.1 		"/>
		<path d="M195.4,39.1c-3-0.8-6.1,0.9-7.2,3.8c0,0.1-0.2,0.9-0.3,1c-1,4.5-1.7,8.3-2.3,11.6c-1.1,6.2-2.3,13.3-2.4,17.1
			c-1.2-0.8-2.8-1.4-3-1.5l0,0c0,0,0,0,0,0c-7.3-2.8-15.5,0.8-18.3,8.1c-2.8,7.3,0.8,15.5,8.1,18.3c6.5,2.5,13.7-0.1,17.2-5.9
			l2.6,5.9l0,0c0,0,0,0,0,0l0,0l0,0c0.4,0.7,1.3,0.9,2,0.6c0.6-0.3,0.9-1,0.7-1.6c0,0,0,0,0,0c0,0,0,0,0,0c0-0.1-0.1-0.2-0.1-0.3
			l0,0c-8.5-19.4,5.2-45.6,7.2-49.2l0,0c0.2-0.4,0.3-1,0.4-1.3C200.2,42.6,198.3,39.8,195.4,39.1z M186.8,84.8
			c-1,4.3-5.1,7.1-9.2,6.2c-4.1-0.9-6.7-5.2-5.8-9.5c1-4.3,5.1-7.1,9.2-6.2S187.7,80.5,186.8,84.8z"/>
	</g>
	<g>
		<polygon points="215.6,73.4 215.6,73.4 215.6,73.4 		"/>
		<path d="M230.7,41.4c-3-0.8-6.1,0.9-7.2,3.8c0,0.1-0.2,0.9-0.3,1c-1,4.5-1.7,8.3-2.3,11.6c-1.1,6.2-2.3,13.3-2.4,17.1
			c-1.2-0.8-2.8-1.4-3-1.5l0,0c0,0,0,0,0,0c-7.3-2.8-15.5,0.8-18.3,8.1c-2.8,7.3,0.8,15.5,8.1,18.3c6.5,2.5,13.7-0.1,17.2-5.9
			l2.6,5.9l0,0c0,0,0,0,0,0l0,0l0,0c0.4,0.7,1.3,0.9,2,0.6c0.6-0.3,0.9-1,0.7-1.6l0,0c0,0,0,0,0,0c0-0.1-0.1-0.2-0.1-0.3l0,0
			C219.3,79,233,52.8,235,49.2l0,0c0.2-0.4,0.3-1,0.4-1.3C235.6,44.9,233.7,42.1,230.7,41.4z M222.1,87.2c-1,4.3-5.1,7.1-9.2,6.2
			c-4.1-0.9-6.7-5.2-5.8-9.5c1-4.3,5.1-7.1,9.2-6.2C220.5,78.6,223.1,82.8,222.1,87.2z"/>
	</g>
	<path d="M264.4,76.5c0.2-0.7-0.2-1.3-0.9-1.5c-0.7-0.2-1.4,0.2-1.6,0.8l0,0l-2.7,9.7c0,0.1-0.2,0.7-0.3,1c0,0.1,0,0.1-0.1,0.2
		c-1.5,3.7-5.6,5.7-9.6,4.6c-4.1-1.2-6.5-5.3-5.6-9.4l0.2-0.9l2.4-8.5c0.1-0.4,0.2-0.7,0.3-1.1l0,0l0,0l0,0c0.1-0.4,0.2-0.8,0.2-0.9
		c0.3-2.5-1.4-5-4.1-5.7c-2.8-0.8-5.6,0.6-6.6,3l0,0c0,0,0,0,0,0.1c-0.6,1.3-9.3,22.4-1.6,32.8c0.1,0.1,0.1,0.1,0.2,0.2
		c0.1,0.1,0.1,0.2,0.2,0.2c0.1,0.1,0.2,0.2,0.2,0.3c0.1,0.1,0.2,0.2,0.3,0.4c0.2,0.3,0.5,0.5,0.8,0.8c0.2,0.2,0.4,0.4,0.7,0.6
		c0,0,0,0,0,0l0,0c1.7,1.6,3.3,3.5,3.3,5.2l0,0c0.1,1-0.1,2.3-1.1,3.9c-0.3,0.5-0.7,1.1-1.3,1.8c-0.1,0.1-0.3,0.3-0.4,0.4
		c-1.2,1.2-2.8,2.6-5,4l0,0c-0.4,0.3-0.8,0.6-1.3,0.9l0,0c-4.7,3.1-8.7,4.5-9.6,4.8c-13.8,4.4-28.8,3.3-31.6,3l0,0
		c-0.4,0-1.1,0.1-1.3,0.2c-2.8,0.9-4.6,3.8-4.1,6.8c0.5,2.8,2.8,4.8,5.5,5.1l0,0l0,0c0.3,0,0.6,0,0.9,0c0.1,0,0.9-0.1,1-0.1
		c0.3-0.1,0.6-0.1,0.8-0.2c0,0,0.1,0,0.4,0c3.7-0.5,10.4-1.6,18-4.1c0.2-0.1,0.5-0.2,0.7-0.2l0,0c0.1,0,0.2-0.1,0.2-0.1
		c0.4-0.2,0.9-0.3,1.4-0.5c5.2-1.9,9.9-3.9,14-6l0,0c4-1.9,7.6-4,10.7-6.2l0,0c0,0,6-3.9,11.7-10.3c1.1-1.1,3-3.4,5.1-6.8
		c0-0.1,0.1-0.1,0.1-0.2l0,0C258.2,98.7,262.3,89.7,264.4,76.5L264.4,76.5z"/>
</g>
</svg>
