<?xml version="1.0" encoding="utf-8"?>
<!-- Generator: Adobe Illustrator 23.0.4, SVG Export Plug-In . SVG Version: 6.00 Build 0)  -->
<svg version="1.1" xmlns="http://www.w3.org/2000/svg" xmlns:xlink="http://www.w3.org/1999/xlink" x="0px" y="0px"
	 viewBox="0 0 319.1 162.4" style="enable-background:new 0 0 319.1 162.4;" xml:space="preserve">
<style type="text/css">
	.st0{fill:#00A6B7;}
	.st1{fill:#F5931E;}
</style>
<g id="Artwork">
	<g>
		<path class="st0" d="M139,126h-6.5l-3.3-6.4v6.4h-5.8v-18.1h7.5c4.3,0,6.8,2,6.8,5.6c0,2.4-1.3,4.2-3.1,5L139,126z M130.2,112.2
			h-1v3.5h1c1.4,0,2.1-0.6,2.1-1.8C132.3,112.7,131.5,112.2,130.2,112.2z"/>
		<path class="st0" d="M156.5,126h-11.3v-18.1h11v4.6H151v2.3h4.4v4.5H151v2.2h5.5V126z"/>
		<path class="st0" d="M187.8,107.9l-4.5,18.1h-6l-2-9.9l-2,9.9h-6l-4.5-18.1h6.5l1.5,9.7l1.8-9.7h5.9l1.8,9.7l1.5-9.7H187.8z"/>
		<path class="st0" d="M210.4,126h-6.1l-1-3.3h-5.3l-1,3.3h-5.8l6.3-18.1h6.5L210.4,126z M202.1,118.3l-1.4-4.6l-1.4,4.6H202.1z"/>
		<path class="st0" d="M232.5,126h-6.5l-3.3-6.4v6.4h-5.8v-18.1h7.5c4.3,0,6.8,2,6.8,5.6c0,2.4-1.3,4.2-3.1,5L232.5,126z
			 M223.7,112.2h-1v3.5h1c1.4,0,2.1-0.6,2.1-1.8C225.8,112.7,225,112.2,223.7,112.2z"/>
		<path class="st0" d="M245.5,126h-6.7v-18.1h6.7c5.9,0,10.2,3.2,10.2,9C255.7,122.9,251,126,245.5,126z M245.5,112.6h-0.9v8.6h0.9
			c2.7,0,4.3-1.7,4.3-4.3C249.8,114.2,248,112.6,245.5,112.6z"/>
		<path class="st0" d="M268.7,126.3c-2.9,0-5.5-1.1-7.2-2.5l2.4-3.8c1.7,1.3,3.1,2,4.7,2c0.9,0,1.5-0.4,1.5-1c0-0.9-0.7-1.2-2.9-1.9
			c-3.3-1-4.9-2.4-4.9-5.4c0-3.9,3.1-6,7.4-6c2.4,0,4.7,0.9,5.9,1.8l-2.4,3.9c-1.2-0.9-2.4-1.4-3.7-1.4c-1.1,0-1.6,0.5-1.6,1
			c0,0.6,0.4,0.9,2.8,1.6c3.3,0.9,5,2.2,5,5.6C275.8,123.8,273.1,126.3,268.7,126.3z"/>
	</g>
	<g>
		<path class="st1" d="M135.9,74.2c-2.6,0-4.9,0.8-6.7,2.2v-9.9c0-1.7-1.2-2.9-3-2.9c-1.8,0-3,1.2-3,2.9v30.9c0,1.7,1.2,2.9,3,2.9
			c1.8,0,3-1.2,3-2.9V84.3c0-3.8,2.9-5.1,5.4-5.1s5.4,1.3,5.4,5.1v13.1c0,1.7,1.2,2.9,3,2.9c1.8,0,3-1.2,3-2.9V84.1
			C146,77.3,140.9,74.2,135.9,74.2z"/>
		<path class="st1" d="M161.6,74.2c-8.2,0-12.5,6.6-12.5,13.1c0,6.5,4.3,13.1,12.5,13.1c8.2,0,12.5-6.6,12.5-13.1
			C174.2,80.8,169.9,74.2,161.6,74.2z M168.2,87.3c0,7.7-5.5,8.1-6.6,8.1s-6.6-0.4-6.6-8.1c0-7.7,5.5-8.1,6.6-8.1
			S168.2,79.6,168.2,87.3z"/>
		<path class="st1" d="M188.6,74.2c-2,0-3.9,1.2-5.4,2.7c-0.1-1.6-1.3-2.7-3-2.7c-1.8,0-3,1.2-3,2.9v20.3c0,1.7,1.2,2.9,3,2.9
			c1.8,0,3-1.2,3-2.9V86c0-4.7,3.6-5.8,5.2-6c2.8-0.5,3.4-1.9,3.4-2.9C191.9,75.4,190.5,74.2,188.6,74.2z"/>
		<path class="st1" d="M196.1,74.2c-1.8,0-3,1.2-3,2.9v20.3c0,1.7,1.2,2.9,3,2.9c1.8,0,3-1.2,3-2.9V77.1
			C199.1,75.4,197.9,74.2,196.1,74.2z"/>
		<path class="st1" d="M220.3,95.1h-10.6l12-15.9c0.7-0.9,1.1-1.6,1.1-2.5c0-1.1-0.8-2.2-2.9-2.2H205c-2.2,0-3,1.3-3,2.5
			c0,1.2,0.8,2.5,3,2.5h9.4l-11.8,15.9c-0.7,0.9-1.1,1.6-1.1,2.5c0,1.1,0.8,2.2,2.9,2.2h15.9c1.9,0,3-0.9,3-2.5
			C223.3,96.4,222.6,95.1,220.3,95.1z"/>
		<path class="st1" d="M237.1,74.2c-8.2,0-12.5,6.6-12.5,13.1c0,6.5,4.3,13.1,12.5,13.1s12.5-6.6,12.5-13.1
			C249.6,80.8,245.3,74.2,237.1,74.2z M237.1,95.3c-1.1,0-6.6-0.4-6.6-8.1c0-7.7,5.5-8.1,6.6-8.1s6.6,0.4,6.6,8.1
			C243.6,95,238.2,95.3,237.1,95.3z"/>
		<path class="st1" d="M265.4,74.2c-2.6,0-4.9,0.8-6.8,2.3c-0.3-1.4-1.4-2.3-2.9-2.3c-1.8,0-3,1.2-3,2.9v20.3c0,1.7,1.2,2.9,3,2.9
			c1.8,0,3-1.2,3-2.9V84.3c0-3.8,2.9-5.1,5.4-5.1s5.4,1.3,5.4,5.1v13.1c0,1.7,1.2,2.9,3,2.9c1.8,0,3-1.2,3-2.9V84.1
			C275.5,77.3,270.5,74.2,265.4,74.2z"/>
		<circle class="st1" cx="195.9" cy="66.5" r="3.7"/>
	</g>
	<g>
		<path class="st0" d="M83.9,102.1c-3.5,0-6.3-2.8-6.3-6.3c0-2.5,1.5-4.7,3.7-5.7c-1.9-1.1-4.1-1.8-6.5-1.8
			c-7.1,0-12.9,5.8-12.9,12.9c0,7.1,5.8,12.9,12.9,12.9c7.1,0,12.9-5.8,12.9-12.9c0-0.1,0-0.2,0-0.3
			C86.6,101.6,85.3,102.1,83.9,102.1z"/>
		<path class="st1" d="M48.9,95.1c-0.6,0-1.3-0.2-1.8-0.6l-7.9-6c-1.3-1-1.5-2.8-0.6-4.1c0.6-0.7,1.4-1.2,2.3-1.2
			c0.6,0,1.3,0.2,1.8,0.6l5.8,4.4c2.2-2.3,4.6-4.3,7.2-6l-4.1-7.7c-0.8-1.4-0.2-3.2,1.2-4c0.4-0.2,0.9-0.3,1.4-0.3
			c1.1,0,2.1,0.6,2.6,1.6l4.1,7.7c3.4-1.4,6.9-2.3,10.5-2.6l0-8.6c0-0.8,0.3-1.5,0.9-2.1c0.6-0.6,1.3-0.9,2.1-0.9
			c1.6,0,2.9,1.3,3,2.9l0,8.5c3.5,0.3,6.9,1.1,10.1,2.4l4.1-7.7c0.5-1,1.5-1.6,2.6-1.6c0.5,0,1,0.1,1.4,0.4c1.4,0.8,2,2.6,1.2,4
			l-4,7.5c2.8,1.7,5.4,3.8,7.8,6.3L107,83c0.5-0.4,1.2-0.6,1.8-0.6c0.9,0,1.8,0.4,2.3,1.1c1,1.3,0.8,3.1-0.5,4.1l-8.7,6.8
			c-0.5,0.4-1.1,0.6-1.8,0.6c-0.8,0-1.5-0.3-2-0.8l0,0l-0.4-0.3c-5.9-7.2-14.3-11.4-23.2-11.4c-4.6,0-9.3,1.2-13.5,3.4
			c-3.9,2-7.1,4.7-9.8,8.1L51,94.3l-0.1-0.1C50.3,94.8,49.6,95.1,48.9,95.1z"/>
		<path class="st1" d="M75.6,126.8c-1,0-2-0.1-3.1-0.2c-3.4-0.4-6.6-1.5-9.6-3.2c-0.7-0.4-1.2-1-1.4-1.8c-0.2-0.8-0.1-1.6,0.3-2.2
			c0.5-0.9,1.5-1.5,2.6-1.5c0.5,0,1,0.1,1.5,0.4c2.3,1.3,4.7,2.1,7.3,2.4c0.8,0.1,1.6,0.1,2.3,0.1c7.2,0,13.9-4.1,17.2-10.5
			c-0.2,0-0.5,0-0.7,0.1c-0.1,0-0.3,0-0.4,0c-1,0-1.9-0.7-2.1-1.7c-0.1-0.6,0-1.1,0.3-1.6c0.3-0.5,0.8-0.8,1.4-0.9
			c0.6-0.1,1.2-0.2,1.9-0.2c4.5,0,8.2,3.1,9.1,7.7c0.2,1.2-0.5,2.3-1.7,2.5c-0.1,0-0.3,0-0.4,0c-1,0-1.9-0.7-2.1-1.7
			c-0.1-0.3-0.1-0.6-0.2-0.8C93.3,121.7,84.7,126.8,75.6,126.8z"/>
	</g>
	<g>
		<g>
			<g>
				<path class="st0" d="M45.3,55.6h-8.6V37.3h8c3.8,0,6.4,1.8,6.4,4.9c0,1.8-1.2,3.3-2.8,3.9c2.1,0.3,3.7,2.2,3.7,4.3
					C52,53.7,49.4,55.6,45.3,55.6z M43.4,41.4h-0.9v3.4h0.9c1.7,0,2.5-0.6,2.5-1.8C45.9,41.8,45,41.4,43.4,41.4z M44.3,48.1h-1.9
					v3.4h1.9c1.7,0,2.3-0.7,2.3-1.8C46.6,48.7,45.8,48.1,44.3,48.1z"/>
				<path class="st0" d="M69,55.6l-1-3.3h-5.4l-1,3.3h-5.8l6.3-18.3h6.6l6.3,18.3H69z M65.3,43.2L64,47.9h2.8L65.3,43.2z"/>
				<path class="st0" d="M88.2,55.9c-5.1,0-8.9-2.6-8.9-8.7v-9.9h6.1v10.5c0,2,1.1,3.2,2.8,3.2c1.7,0,2.8-1.3,2.8-3.2V37.3h6.1v9.9
					C97.1,53.3,93.3,55.9,88.2,55.9z"/>
				<path class="st0" d="M109.6,55.9c-3,0-5.6-1.1-7.3-2.6l2.4-3.9c1.7,1.4,3.2,2,4.8,2c0.9,0,1.5-0.4,1.5-1c0-0.9-0.7-1.2-2.9-1.9
					c-3.3-1-5-2.5-5-5.5c0-4,3.1-6.1,7.5-6.1c2.4,0,4.7,0.9,5.9,1.9l-2.4,4c-1.3-0.9-2.4-1.4-3.8-1.4c-1.2,0-1.6,0.5-1.6,1
					c0,0.6,0.4,0.9,2.8,1.6c3.3,1,5.1,2.2,5.1,5.7C116.8,53.5,114,55.9,109.6,55.9z"/>
				<path class="st0" d="M131.4,55.9c-5.6,0-9.5-3.9-9.5-9.4c0-5.5,4.1-9.5,9.6-9.5c2.9,0,4.9,1.3,6.5,2.6l-3,4.1
					c-1-1-2-1.7-3.6-1.7c-2,0-3.5,1.8-3.5,4.4c0,2.6,1.5,4.5,3.9,4.5c1.4,0,2.6-0.6,3.7-1.6l2.9,4C136.6,54.8,134.6,55.9,131.4,55.9
					z"/>
				<path class="st0" d="M154.9,55.6v-6.4h-4.6v6.4h-6.1V37.3h6.1v6.7h4.6v-6.7h6.1v18.3H154.9z"/>
				<path class="st0" d="M195.4,55.6V37.3h5.9V51h6v4.7H195.4z"/>
				<path class="st0" d="M220.4,55.9c-5.7,0-9.8-4-9.8-9.4c0-5.5,4.1-9.5,9.9-9.5c5.7,0,9.8,4,9.8,9.4
					C230.3,51.9,226.2,55.9,220.4,55.9z M220.4,41.9c-2.2,0-3.8,1.9-3.8,4.6c0,2.6,1.7,4.6,3.9,4.6c2.2,0,3.8-1.9,3.8-4.6
					C224.3,43.9,222.7,41.9,220.4,41.9z"/>
				<path class="st0" d="M249.1,55.6v-8.9l-2.8,5.3h-2.8l-2.9-5.3v8.9h-5.8V37.3h5.9l4.2,7.3l3.9-7.3h6.4v18.3H249.1z"/>
				<path class="st0" d="M269.6,55.6H261V37.3h8c3.8,0,6.4,1.8,6.4,4.9c0,1.8-1.2,3.3-2.8,3.9c2.1,0.3,3.7,2.2,3.7,4.3
					C276.3,53.7,273.7,55.6,269.6,55.6z M267.6,41.4h-0.9v3.4h0.9c1.7,0,2.5-0.6,2.5-1.8C270.1,41.8,269.2,41.4,267.6,41.4z
					 M268.5,48.1h-1.9v3.4h1.9c1.7,0,2.3-0.7,2.3-1.8C270.9,48.7,270,48.1,268.5,48.1z"/>
			</g>
		</g>
		<g>
			<rect x="175.2" y="43.5" class="st0" width="5.9" height="5.9"/>
			<g>
				<rect x="175.2" y="37.3" class="st0" width="5.9" height="6.2"/>
				<rect x="175.2" y="49.4" class="st0" width="5.9" height="6.2"/>
			</g>
			<g>
				<rect x="169" y="43.5" class="st0" width="6.2" height="5.9"/>
				<rect x="181.1" y="43.5" class="st0" width="6.2" height="5.9"/>
			</g>
		</g>
		<g>
			<path class="st0" d="M276.7,40.2c0-0.4,0.1-0.8,0.2-1.1c0.1-0.3,0.4-0.6,0.6-0.9c0.3-0.3,0.6-0.5,0.9-0.6
				c0.3-0.1,0.7-0.2,1.1-0.2c0.4,0,0.8,0.1,1.1,0.2c0.3,0.1,0.6,0.3,0.9,0.6c0.3,0.3,0.5,0.6,0.6,0.9c0.1,0.3,0.2,0.7,0.2,1.1
				c0,0.4-0.1,0.8-0.2,1.1c-0.2,0.3-0.4,0.6-0.6,0.9c-0.3,0.3-0.6,0.5-0.9,0.6c-0.3,0.1-0.7,0.2-1.1,0.2c-0.4,0-0.8-0.1-1.1-0.2
				c-0.3-0.1-0.6-0.3-0.9-0.6c-0.3-0.3-0.5-0.6-0.6-0.9C276.7,41,276.7,40.6,276.7,40.2z M277.2,40.2c0,0.3,0.1,0.7,0.2,1
				s0.3,0.6,0.5,0.8c0.2,0.2,0.5,0.4,0.7,0.5c0.3,0.1,0.6,0.2,0.9,0.2s0.6-0.1,0.9-0.2c0.3-0.1,0.5-0.3,0.7-0.5
				c0.2-0.2,0.4-0.5,0.5-0.8c0.1-0.3,0.2-0.6,0.2-1c0-0.3-0.1-0.7-0.2-1c-0.1-0.3-0.3-0.6-0.5-0.8c-0.2-0.2-0.5-0.4-0.7-0.5
				c-0.3-0.1-0.6-0.2-0.9-0.2s-0.6,0.1-0.9,0.2c-0.3,0.1-0.5,0.3-0.7,0.5c-0.2,0.2-0.4,0.5-0.5,0.8
				C277.2,39.6,277.2,39.9,277.2,40.2z M278.4,38.6h1.3c0.8,0,1.2,0.3,1.2,0.9c0,0.3-0.1,0.5-0.3,0.7c-0.2,0.1-0.4,0.2-0.6,0.2
				l1,1.5h-0.5l-0.9-1.4h-0.5v1.4h-0.5V38.6z M278.9,40h0.5c0.1,0,0.2,0,0.3,0c0.1,0,0.2,0,0.3-0.1c0.1,0,0.1-0.1,0.2-0.2
				c0.1-0.1,0.1-0.2,0.1-0.3c0-0.1,0-0.2-0.1-0.3c0-0.1-0.1-0.1-0.2-0.2c-0.1,0-0.2-0.1-0.2-0.1c-0.1,0-0.2,0-0.3,0h-0.7V40z"/>
		</g>
	</g>
</g>
<g id="Guides">
</g>
</svg>
